<?xml version="1.0" encoding="UTF-8" standalone="no"?>
<svg
   xmlns:dc="http://purl.org/dc/elements/1.1/"
   xmlns:cc="http://creativecommons.org/ns#"
   xmlns:rdf="http://www.w3.org/1999/02/22-rdf-syntax-ns#"
   xmlns:svg="http://www.w3.org/2000/svg"
   xmlns="http://www.w3.org/2000/svg"
   xmlns:sodipodi="http://sodipodi.sourceforge.net/DTD/sodipodi-0.dtd"
   xmlns:inkscape="http://www.inkscape.org/namespaces/inkscape"
   width="128"
   height="128"
   viewBox="0 0 33.866665 33.866665"
   version="1.1"
   id="svg8"
   inkscape:version="1.0 (4035a4fb49, 2020-05-01)"
   sodipodi:docname="code-cog.svg"
   inkscape:export-filename="C:\Users\kylemit\Documents\Github\vs-utils\images\code-cog.png"
   inkscape:export-xdpi="96"
   inkscape:export-ydpi="96">
  <defs
     id="defs2">
    <filter
       color-interpolation-filters="sRGB"
       filterUnits="userSpaceOnUse"
       height="236.149"
       width="298.82199"
       y="40.522499"
       x="-21.489599"
       id="filter0_d">
      <feFlood
         id="feFlood29"
         result="BackgroundImageFix"
         flood-opacity="0" />
      <feColorMatrix
         id="feColorMatrix31"
         values="0 0 0 0 0 0 0 0 0 0 0 0 0 0 0 0 0 0 127 0"
         type="matrix"
         in="SourceAlpha" />
      <feOffset
         id="feOffset33" />
      <feGaussianBlur
         id="feGaussianBlur35"
         stdDeviation="10.6667" />
      <feColorMatrix
         id="feColorMatrix37"
         values="0 0 0 0 0 0 0 0 0 0 0 0 0 0 0 0 0 0 0.25 0"
         type="matrix" />
      <feBlend
         id="feBlend39"
         result="effect1_dropShadow"
         in2="BackgroundImageFix"
         mode="overlay" />
      <feBlend
         id="feBlend41"
         result="shape"
         in2="effect1_dropShadow"
         in="SourceGraphic"
         mode="normal" />
    </filter>
    <filter
       color-interpolation-filters="sRGB"
       filterUnits="userSpaceOnUse"
       height="297.34698"
       width="122.667"
       y="-20.6735"
       x="154.66701"
       id="filter1_d">
      <feFlood
         id="feFlood44"
         result="BackgroundImageFix"
         flood-opacity="0" />
      <feColorMatrix
         id="feColorMatrix46"
         values="0 0 0 0 0 0 0 0 0 0 0 0 0 0 0 0 0 0 127 0"
         type="matrix"
         in="SourceAlpha" />
      <feOffset
         id="feOffset48" />
      <feGaussianBlur
         id="feGaussianBlur50"
         stdDeviation="10.6667" />
      <feColorMatrix
         id="feColorMatrix52"
         values="0 0 0 0 0 0 0 0 0 0 0 0 0 0 0 0 0 0 0.25 0"
         type="matrix" />
      <feBlend
         id="feBlend54"
         result="effect1_dropShadow"
         in2="BackgroundImageFix"
         mode="overlay" />
      <feBlend
         id="feBlend56"
         result="shape"
         in2="effect1_dropShadow"
         in="SourceGraphic"
         mode="normal" />
    </filter>
    <linearGradient
       gradientUnits="userSpaceOnUse"
       y2="255.34"
       x2="127.844"
       y1="0.65998799"
       x1="127.844"
       id="paint0_linear">
      <stop
         id="stop59"
         stop-color="white" />
      <stop
         id="stop61"
         stop-opacity="0"
         stop-color="white"
         offset="1" />
    </linearGradient>
  </defs>
  <sodipodi:namedview
     id="base"
     pagecolor="#ffffff"
     bordercolor="#666666"
     borderopacity="1.0"
     inkscape:pageopacity="0.0"
     inkscape:pageshadow="2"
     inkscape:zoom="1.4"
     inkscape:cx="12.558678"
     inkscape:cy="127.16987"
     inkscape:document-units="px"
     inkscape:current-layer="layer1"
     inkscape:document-rotation="0"
     showgrid="false"
     units="px"
     inkscape:window-width="1268"
     inkscape:window-height="760"
     inkscape:window-x="0"
     inkscape:window-y="0"
     inkscape:window-maximized="0" />
  <metadata
     id="metadata5">
    <rdf:RDF>
      <cc:Work
         rdf:about="">
        <dc:format>image/svg+xml</dc:format>
        <dc:type
           rdf:resource="http://purl.org/dc/dcmitype/StillImage" />
        <dc:title></dc:title>
      </cc:Work>
    </rdf:RDF>
  </metadata>
  <g
     inkscape:label="Layer 1"
     inkscape:groupmode="layer"
     id="layer1"
     transform="translate(-54.206225,-40.794425)">
    <g
       id="g122"
       transform="matrix(0.37373469,0,0,0.37373469,36.101943,27.173431)">
      <g
         transform="matrix(0.26458333,0,0,0.26458333,59.892015,46.264288)"
         id="g99"
         style="fill:none">
        <g
           mask="url(#mask0)"
           id="g27">
          <path
             d="M 246.94,27.6383 194.193,2.24138 C 188.088,-0.698302 180.791,0.541721 175.999,5.33332 L 3.32371,162.773 c -4.64453,4.235 -4.63919,11.547 0.01152,15.775 L 17.4399,191.37 c 3.8022,3.457 9.5283,3.711 13.622,0.606 L 239.003,34.2269 c 6.976,-5.2922 16.996,-0.3166 16.996,8.4398 v -0.6124 c 0,-6.1465 -3.521,-11.7496 -9.059,-14.416 z"
             fill="#0065a9"
             id="path13" />
          <g
             filter="url(#filter0_d)"
             id="g17">
            <path
               d="m 246.94,228.362 -52.747,25.397 c -6.105,2.939 -13.402,1.699 -18.194,-3.092 L 3.32371,93.2272 C -1.32082,88.9925 -1.31548,81.6802 3.33523,77.4523 L 17.4399,64.6298 c 3.8022,-3.4565 9.5283,-3.711 13.622,-0.6053 L 239.003,221.773 c 6.976,5.292 16.996,0.317 16.996,-8.44 v 0.613 c 0,6.146 -3.521,11.749 -9.059,14.416 z"
               fill="#007acc"
               id="path15" />
          </g>
          <g
             filter="url(#filter1_d)"
             id="g21">
            <path
               d="m 194.196,253.763 c -6.107,2.937 -13.404,1.696 -18.196,-3.096 5.904,5.904 16,1.722 16,-6.628 V 11.9606 c 0,-8.35003 -10.096,-12.531775 -16,-6.62739 4.792,-4.792044 12.089,-6.033817 18.196,-3.09673 l 52.738,25.36202 c 5.542,2.665 9.066,8.2701 9.066,14.4193 V 213.983 c 0,6.149 -3.524,11.754 -9.066,14.419 z"
               fill="#1f9cf0"
               id="path19" />
          </g>
          <g
             style="mix-blend-mode:overlay"
             opacity="0.25"
             id="g25">
            <path
               style="fill:url(#paint0_linear)"
               fill-rule="evenodd"
               clip-rule="evenodd"
               d="m 181.378,254.252 c 4.032,1.57 8.63,1.47 12.699,-0.488 l 52.706,-25.362 c 5.539,-2.665 9.061,-8.27 9.061,-14.419 V 42.0179 c 0,-6.1492 -3.522,-11.7543 -9.06,-14.4193 L 194.077,2.23665 c -5.34,-2.569949 -11.591,-1.940473 -16.279,1.46736 -0.669,0.48682 -1.307,1.03036 -1.906,1.62936 L 74.9927,97.386 31.0429,64.0245 C 26.9517,60.9189 21.229,61.1734 17.4292,64.6298 L 3.33311,77.4523 c -4.64789,4.228 -4.65322,11.5402 -0.01151,15.775 L 41.4364,128 3.3216,162.773 c -4.64171,4.235 -4.63638,11.547 0.01151,15.775 L 17.4292,191.37 c 3.7998,3.457 9.5225,3.711 13.6137,0.606 l 43.9498,-33.362 100.8993,92.053 c 1.596,1.597 3.471,2.8 5.486,3.585 z M 191.883,69.8851 115.323,128 l 76.56,58.115 z"
               fill="url(#paint0_linear)"
               id="path23" />
          </g>
        </g>
      </g>
      <path
         style="fill:#7137c8;stroke-width:0.0725477"
         fill="currentColor"
         d="m 132.80461,109.0067 -3.09054,-1.78468 c 0.31196,-1.68311 0.31196,-3.40974 0,-5.09284 l 3.09054,-1.78469 c 0.35548,-0.20313 0.51509,-0.623907 0.39901,-1.015674 -0.80528,-2.582695 -2.17643,-4.918723 -3.96836,-6.863006 -0.27568,-0.29745 -0.72548,-0.37 -1.07371,-0.16687 l -3.09054,1.78468 c -1.2986,-1.11724 -2.79309,-1.98055 -4.4109,-2.54643 V 87.9751 c 0,-0.40627 -0.28294,-0.76176 -0.68195,-0.84881 -2.6625,-0.59489 -5.3903,-0.56588 -7.92222,0 -0.39901,0.0871 -0.68195,0.44254 -0.68195,0.84881 v 3.56935 c -1.61056,0.57313 -3.10503,1.43644 -4.41089,2.54642 l -3.08328,-1.78467 c -0.35549,-0.20313 -0.79803,-0.13784 -1.07371,0.16686 -1.79193,1.937033 -3.163077,4.273061 -3.968361,6.863016 -0.12333,0.391767 0.0435,0.812534 0.399017,1.015674 l 3.090534,1.78468 c -0.31196,1.6831 -0.31196,3.40974 0,5.09285 l -3.090534,1.78467 c -0.355487,0.20314 -0.515097,0.62391 -0.399017,1.01567 0.805284,2.5827 2.176431,4.91874 3.968361,6.86302 0.27568,0.29745 0.72548,0.36999 1.07371,0.16686 l 3.09053,-1.78467 c 1.29861,1.11723 2.79308,1.98055 4.4109,2.54642 v 3.56935 c 0,0.40627 0.28293,0.76176 0.68195,0.84881 2.6625,0.59489 5.3903,0.56588 7.92222,0 0.39901,-0.087 0.68194,-0.44254 0.68194,-0.84881 v -3.56935 c 1.61056,-0.57313 3.10505,-1.43644 4.41091,-2.54642 l 3.09053,1.78467 c 0.35549,0.20313 0.79803,0.13784 1.07371,-0.16686 1.79193,-1.93703 3.16309,-4.27306 3.96836,-6.86302 0.10883,-0.39901 -0.0508,-0.81979 -0.40626,-1.02292 z m -16.78756,1.47272 c -3.19935,0 -5.80382,-2.60447 -5.80382,-5.80383 0,-3.19934 2.60447,-5.803821 5.80382,-5.803821 3.19936,0 5.80382,2.604481 5.80382,5.803821 0,3.19936 -2.60446,5.80383 -5.80382,5.80383 z"
         id="path101" />
    </g>
  </g>
</svg>
